# xmcd
#
# Track frame offsets:
#	150
#	17126
#	31026
#	45546
#	62414
#	90845
#	103662
#	115724
#	139837
#	156945
#	175547
#	197864
#	211524
#	239078
#	258764
#	270284
#	282359
#
# Disc length: 3962 seconds
#
# Revision: 1
# Processed by: cddbd v1.5.1PL0 Copyright (c) Steve Scherf et al.
# Submitted via: audiograbber 1.81.03
#
DISCID=d60f7811
DTITLE=Blue Soul - Groove Stew
DYEAR=1900
DGENRE=Blues
TTITLE0=Who Knows
TTITLE1=I Still Believe
TTITLE2=Fool Yourself
TTITLE3=Hold The Line
TTITLE4=Hooked
TTITLE5=Laptop
TTITLE6=At Least Some Day
TTITLE7=Once In A While
TTITLE8=Lay Down And Die
TTITLE9=Disire
TTITLE10=Bar Talk
TTITLE11=If It Fits My Size
TTITLE12=Sleepless
TTITLE13=Bad Blues
TTITLE14=Good Lovin
TTITLE15=Hoppin
TTITLE16=Ain't No Bluesman
EXTD=
EXTT0=
EXTT1=
EXTT2=
EXTT3=
EXTT4=
EXTT5=
EXTT6=
EXTT7=
EXTT8=
EXTT9=
EXTT10=
EXTT11=
EXTT12=
EXTT13=
EXTT14=
EXTT15=
EXTT16=
PLAYORDER=
